# xmcd CD database file
#
# Track frame offsets:
#	150
#	19763
#	28080
#	39918
#	51128
#	63493
#	76198
#	92770
#	107740
#	120298
#	129925
#	144770
#	163285
#	181560
#	201795
#	217585
#	220658
#
# Disc length: 3203 seconds
#
# Revision: 3
# Processed by: cddbd v1.5.2PL0 Copyright (c) Steve Scherf et al.
# Submitted via: CDex 1.78
#
DISCID=d20c8111
DTITLE=Varios - Country-Rockers - Live
DYEAR=1991
DGENRE=Country
TTITLE0=Lucille
TTITLE1=Great Balls Of Fire
TTITLE2=Rockin' My Life Away
TTITLE3=Whole Lotta Shakin' Goin' On
TTITLE4=Don't The Girls All Get Prettier At Closing Time
TTITLE5=Headache Tomorrow, Heartache Tonight
TTITLE6=You Need A Lady In Your Life
TTITLE7=Your Memory Ain't What It Used To Be
TTITLE8=Object Of My Affection
TTITLE9=High Horse
TTITLE10=Home Again In My Heart
TTITLE11=Long Hard Ride (Sharecropper's Song)
TTITLE12=Partners, Brothers, Friends
TTITLE13=Cadillac Ranch
TTITLE14=Dance Little Jean
TTITLE15=Randy Lynn Scruggs Rag
TTITLE16=Mr. Bojangles
EXTD=YEAR: 1991
EXTT0=
EXTT1=
EXTT2=
EXTT3=
EXTT4=
EXTT5=
EXTT6=
EXTT7=
EXTT8=
EXTT9=
EXTT10=
EXTT11=
EXTT12=
EXTT13=
EXTT14=
EXTT15=
EXTT16=
PLAYORDER=
